TITLE ""
FILE "P1Q_j_1614-1627.mp3" MP3
  TRACK 01 AUDIO
    TITLE "P1Q_j_1614-1627_01"
    INDEX 01 00:00:00
  TRACK 02 AUDIO
    TITLE "P1Q_j_1614-1627_02"
    INDEX 01 00:00:12
  TRACK 03 AUDIO
    TITLE "P1Q_j_1614-1627_03"
    INDEX 01 00:01:35
  TRACK 04 AUDIO
    TITLE "P1Q_j_1614-1627_04"
    INDEX 01 00:01:57
  TRACK 05 AUDIO
    TITLE "P1Q_j_1614-1627_05"
    INDEX 01 00:05:41
  TRACK 06 AUDIO
    TITLE "P1Q_j_1614-1627_06"
    INDEX 01 00:05:60
  TRACK 07 AUDIO
    TITLE "P1Q_j_1614-1627_07"
    INDEX 01 00:11:49
  TRACK 08 AUDIO
    TITLE "P1Q_j_1614-1627_08"
    INDEX 01 00:12:17
  TRACK 09 AUDIO
    TITLE "P1Q_j_1614-1627_09"
    INDEX 01 00:13:38
  TRACK 10 AUDIO
    TITLE "P1Q_j_1614-1627_10"
    INDEX 01 00:13:60
  TRACK 11 AUDIO
    TITLE "P1Q_j_1614-1627_11"
    INDEX 01 00:19:66
  TRACK 12 AUDIO
    TITLE "P1Q_j_1614-1627_12"
    INDEX 01 00:20:11
  TRACK 13 AUDIO
    TITLE "P1Q_j_1614-1627_13"
    INDEX 01 00:25:02
  TRACK 14 AUDIO
    TITLE "P1Q_j_1614-1627_14"
    INDEX 01 00:25:46
  TRACK 15 AUDIO
    TITLE "P1Q_j_1614-1627_15"
    INDEX 01 00:26:74
  TRACK 16 AUDIO
    TITLE "P1Q_j_1614-1627_16"
    INDEX 01 00:27:19
  TRACK 17 AUDIO
    TITLE "P1Q_j_1614-1627_17"
    INDEX 01 00:29:20
  TRACK 18 AUDIO
    TITLE "P1Q_j_1614-1627_18"
    INDEX 01 00:29:39
  TRACK 19 AUDIO
    TITLE "P1Q_j_1614-1627_19"
    INDEX 01 00:34:33
  TRACK 20 AUDIO
    TITLE "P1Q_j_1614-1627_20"
    INDEX 01 00:35:05
  TRACK 21 AUDIO
    TITLE "P1Q_j_1614-1627_21"
    INDEX 01 00:36:71
  TRACK 22 AUDIO
    TITLE "P1Q_j_1614-1627_22"
    INDEX 01 00:37:13
  TRACK 23 AUDIO
    TITLE "P1Q_j_1614-1627_23"
    INDEX 01 00:39:44
  TRACK 24 AUDIO
    TITLE "P1Q_j_1614-1627_24"
    INDEX 01 00:39:63
  TRACK 25 AUDIO
    TITLE "P1Q_j_1614-1627_25"
    INDEX 01 00:44:49
  TRACK 26 AUDIO
    TITLE "P1Q_j_1614-1627_26"
    INDEX 01 00:45:17
  TRACK 27 AUDIO
    TITLE "P1Q_j_1614-1627_27"
    INDEX 01 00:47:22
  TRACK 28 AUDIO
    TITLE "P1Q_j_1614-1627_28"
    INDEX 01 00:47:41
  TRACK 29 AUDIO
    TITLE "P1Q_j_1614-1627_29"
    INDEX 01 00:49:62
  TRACK 30 AUDIO
    TITLE "P1Q_j_1614-1627_30"
    INDEX 01 00:50:06
  TRACK 31 AUDIO
    TITLE "P1Q_j_1614-1627_31"
    INDEX 01 00:53:73
  TRACK 32 AUDIO
    TITLE "P1Q_j_1614-1627_32"
    INDEX 01 00:54:43
  TRACK 33 AUDIO
    TITLE "P1Q_j_1614-1627_33"
    INDEX 01 00:56:19
  TRACK 34 AUDIO
    TITLE "P1Q_j_1614-1627_34"
    INDEX 01 00:56:40
  TRACK 35 AUDIO
    TITLE "P1Q_j_1614-1627_35"
    INDEX 01 01:01:35
  TRACK 36 AUDIO
    TITLE "P1Q_j_1614-1627_36"
    INDEX 01 01:01:55
  TRACK 37 AUDIO
    TITLE "P1Q_j_1614-1627_37"
    INDEX 01 01:06:48
  TRACK 38 AUDIO
    TITLE "P1Q_j_1614-1627_38"
    INDEX 01 01:07:18
  TRACK 39 AUDIO
    TITLE "P1Q_j_1614-1627_39"
    INDEX 01 01:09:04
  TRACK 40 AUDIO
    TITLE "P1Q_j_1614-1627_40"
    INDEX 01 01:09:23
  TRACK 41 AUDIO
    TITLE "P1Q_j_1614-1627_41"
    INDEX 01 01:13:03
  TRACK 42 AUDIO
    TITLE "P1Q_j_1614-1627_42"
    INDEX 01 01:13:23
  TRACK 43 AUDIO
    TITLE "P1Q_j_1614-1627_43"
    INDEX 01 01:18:26
  TRACK 44 AUDIO
    TITLE "P1Q_j_1614-1627_44"
    INDEX 01 01:18:71
  TRACK 45 AUDIO
    TITLE "P1Q_j_1614-1627_45"
    INDEX 01 01:20:62
  TRACK 46 AUDIO
    TITLE "P1Q_j_1614-1627_46"
    INDEX 01 01:21:07
  TRACK 47 AUDIO
    TITLE "P1Q_j_1614-1627_47"
    INDEX 01 01:25:40
  TRACK 48 AUDIO
    TITLE "P1Q_j_1614-1627_48"
    INDEX 01 01:25:61
  TRACK 49 AUDIO
    TITLE "P1Q_j_1614-1627_49"
    INDEX 01 01:28:30
  TRACK 50 AUDIO
    TITLE "P1Q_j_1614-1627_50"
    INDEX 01 01:28:75
  TRACK 51 AUDIO
    TITLE "P1Q_j_1614-1627_51"
    INDEX 01 01:30:33
  TRACK 52 AUDIO
    TITLE "P1Q_j_1614-1627_52"
    INDEX 01 01:30:55
  TRACK 53 AUDIO
    TITLE "P1Q_j_1614-1627_53"
    INDEX 01 01:33:39
  TRACK 54 AUDIO
    TITLE "P1Q_j_1614-1627_54"
    INDEX 01 01:33:59
  TRACK 55 AUDIO
    TITLE "P1Q_j_1614-1627_55"
    INDEX 01 01:37:59
  TRACK 56 AUDIO
    TITLE "P1Q_j_1614-1627_56"
    INDEX 01 01:38:29
  TRACK 57 AUDIO
    TITLE "P1Q_j_1614-1627_57"
    INDEX 01 01:39:42
  TRACK 58 AUDIO
    TITLE "P1Q_j_1614-1627_58"
    INDEX 01 01:39:64
  TRACK 59 AUDIO
    TITLE "P1Q_j_1614-1627_59"
    INDEX 01 01:42:72
  TRACK 60 AUDIO
    TITLE "P1Q_j_1614-1627_60"
    INDEX 01 01:43:16
  TRACK 61 AUDIO
    TITLE "P1Q_j_1614-1627_61"
    INDEX 01 01:47:06
  TRACK 62 AUDIO
    TITLE "P1Q_j_1614-1627_62"
    INDEX 01 01:47:51
  TRACK 63 AUDIO
    TITLE "P1Q_j_1614-1627_63"
    INDEX 01 01:49:05
  TRACK 64 AUDIO
    TITLE "P1Q_j_1614-1627_64"
    INDEX 01 01:49:27
  TRACK 65 AUDIO
    TITLE "P1Q_j_1614-1627_65"
    INDEX 01 01:53:58
  TRACK 66 AUDIO
    TITLE "P1Q_j_1614-1627_66"
    INDEX 01 01:54:02
  TRACK 67 AUDIO
    TITLE "P1Q_j_1614-1627_67"
    INDEX 01 01:59:04
  TRACK 68 AUDIO
    TITLE "P1Q_j_1614-1627_68"
    INDEX 01 01:59:51
  TRACK 69 AUDIO
    TITLE "P1Q_j_1614-1627_69"
    INDEX 01 02:01:10
  TRACK 70 AUDIO
    TITLE "P1Q_j_1614-1627_70"
    INDEX 01 02:01:30
  TRACK 71 AUDIO
    TITLE "P1Q_j_1614-1627_71"
    INDEX 01 02:04:54
  TRACK 72 AUDIO
    TITLE "P1Q_j_1614-1627_72"
    INDEX 01 02:04:73
  TRACK 73 AUDIO
    TITLE "P1Q_j_1614-1627_73"
    INDEX 01 02:09:43
  TRACK 74 AUDIO
    TITLE "P1Q_j_1614-1627_74"
    INDEX 01 02:10:11
  TRACK 75 AUDIO
    TITLE "P1Q_j_1614-1627_75"
    INDEX 01 02:11:75
  TRACK 76 AUDIO
    TITLE "P1Q_j_1614-1627_76"
    INDEX 01 02:12:20
  TRACK 77 AUDIO
    TITLE "P1Q_j_1614-1627_77"
    INDEX 01 02:16:74
  TRACK 78 AUDIO
    TITLE "P1Q_j_1614-1627_78"
    INDEX 01 02:17:17
  TRACK 79 AUDIO
    TITLE "P1Q_j_1614-1627_79"
    INDEX 01 02:22:50
  TRACK 80 AUDIO
    TITLE "P1Q_j_1614-1627_80"
    INDEX 01 02:23:18
  TRACK 81 AUDIO
    TITLE "P1Q_j_1614-1627_81"
    INDEX 01 02:24:52
  TRACK 82 AUDIO
    TITLE "P1Q_j_1614-1627_82"
    INDEX 01 02:24:72
  TRACK 83 AUDIO
    TITLE "P1Q_j_1614-1627_83"
    INDEX 01 02:28:70
  TRACK 84 AUDIO
    TITLE "P1Q_j_1614-1627_84"
    INDEX 01 02:29:14
  TRACK 85 AUDIO
    TITLE "P1Q_j_1614-1627_85"
    INDEX 01 02:34:10
